{"title":"Batman v Superman (2016) HQ 1080p Blu-ray Dolby ATMOS 7.1 -DDR","uid":15279528,"size":21963129736,"categoryP":"video","categoryS":"hd___movies","magnet":"?xt=urn:btih:6c99dd40ba596f90255872180d0ff6515e18683a&amp;dn=Batman+v+Superman+%282016%29+HQ+1080p+Blu-ray+Dolby+ATMOS+7.1+-DDR&amp;tr=udp%3A%2F%2Ftracker.leechers-paradise.org%3A6969&amp;tr=udp%3A%2F%2Fzer0day.ch%3A1337&amp;tr=udp%3A%2F%2Fopen.demonii.com%3A1337&amp;tr=udp%3A%2F%2Ftracker.coppersurfer.tk%3A6969&amp;tr=udp%3A%2F%2Fexodus.desync.com%3A6969","seeders":12,"leechers":20,"uploader":"SaM","files":3,"time":1468335141,"description":"HQ 1080p Blu-ray Rip x264\r\n\r\nDolby ATMOS 7.1 Audio\r\n\r\nEnglish, French, Spanish, Portuguese &amp; Thai Subtitles \r\n \nhttp://extraimago.com/image/axM5 \nhttp://extraimago.com/image/axMD \nhttp://extraimago.com/image/axMF \nhttp://extraimago.com/image/axMH \nhttp://extraimago.com/image/axMk \nhttp://extraimago.com/image/axMo \nhttp://extraimago.com/image/axMt \nhttp://extraimago.com/image/axMx \nhttp://extraimago.com/image/axM6 \nhttp://extraimago.com/image/axMV \nhttp://extraimago.com/image/axMu \nhttp://extraimago.com/image/axMv \nhttp://extraimago.com/image/axMA \nhttp://extraimago.com/image/axMW \nhttp://extraimago.com/image/axMf \nhttp://extraimago.com/image/axU8 \nhttp://extraimago.com/image/axUa\r\n\r\nSpecs:\r\nSource: BD50 @ DDR\r\n\r\nFormat : Matroska\r\nFile size : 20.3 GiB\r\nDuration : 3h 2mn\r\nOverall bit rate mode : Variable\r\nOverall bit rate : 15.9 Mbps\r\nEncoded date : UTC 2016-07-11 22:48:03\r\n\r\nVideo\r\nFormat : AVC\r\nFormat profile :   \r\nDuration : 3h 2mn\r\nBit rate : 10 000 Kbps\r\nWidth : 1 920 pixels\r\nHeight : 800 pixels\r\nDisplay aspect ratio : 2.40:1\r\nFrame rate mode : Constant\r\nFrame rate : 23.976 (24000/1001) fps\r\nColor space : YUV\r\nChroma subsampling : 4:2:0\r\nBit depth : 8 bits\r\nScan type : Progressive\r\nBits/(Pixel*Frame) : 0.272\r\nStream size : 12.7 GiB (63%)\r\n\r\nFormat : Atmos / TrueHD\r\nCodec ID : A_TRUEHD\r\nDuration : 3h 2mn\r\nBit rate mode : Variable\r\nBit rate : 4 967 Kbps\r\nMaximum bit rate : 8 199 Kbps\r\nChannel(s) : Object Based / 8 channels\r\nChannel positions : Object Based / Front: L C R, Side: L R, Back: L R, LFE\r\nSampling rate : / 48.0 KHz\r\nFrame rate : 1 200.000 fps (40 spf)\r\nCompression mode : Lossless\r\nStream size : 6.33 GiB (31%)\r\nLanguage : English\r\nDefault : Yes\r\nForced : No\r\n\r\nAudio #2\r\nID : 3\r\nFormat : AC-3\r\nFormat/Info : Audio Coding 3\r\nMode extension : CM (complete main)\r\nFormat settings, Endianness : Big\r\nCodec ID : A_AC3\r\nDuration : 3h 2mn\r\nBit rate mode : Constant\r\nBit rate : 448 Kbps\r\nChannel(s) : 6 channels\r\nChannel positions : Front: L C R, Side: L R, LFE\r\nSampling rate : 48.0 KHz\r\nFrame rate : 31.250 fps (1536 spf)\r\nCompression mode : Lossy\r\nStream size : 585 MiB (3%)\r\nLanguage : English\r\nDefault : No\r\nForced : No\r\n\r\nAudio #3\r\nID : 4\r\nFormat : AC-3\r\nFormat/Info : Audio Coding 3\r\nMode extension : CM (complete main)\r\nFormat settings, Endianness : Big\r\nCodec ID : A_AC3\r\nDuration : 3h 2mn\r\nBit rate mode : Constant\r\nBit rate : 448 Kbps\r\nChannel(s) : 6 channels\r\nChannel positions : Front: L C R, Side: L R, LFE\r\nSampling rate : 48.0 KHz\r\nFrame rate : 31.250 fps (1536 spf)\r\nCompression mode : Lossy\r\nStream size : 585 MiB (3%)\r\nLanguage : French\r\nDefault : No\r\nForced : No\r\n\r\n\r\n\r\nChapters : YES - 16\r\nSAMPLE Included\r\n\r\nA DDR Exclusive Encode","torrent":{"xt":"urn:btih:6c99dd40ba596f90255872180d0ff6515e18683a","amp;dn":"Batman+v+Superman+%282016%29+HQ+1080p+Blu-ray+Dolby+ATMOS+7.1+-DDR","amp;tr":["udp%3A%2F%2Ftracker.leechers-paradise.org%3A6969","udp%3A%2F%2Fzer0day.ch%3A1337","udp%3A%2F%2Fopen.demonii.com%3A1337","udp%3A%2F%2Ftracker.coppersurfer.tk%3A6969","udp%3A%2F%2Fexodus.desync.com%3A6969"],"infoHash":"6c99dd40ba596f90255872180d0ff6515e18683a","infoHashBuffer":{"type":"Buffer","data":[108,153,221,64,186,89,111,144,37,88,114,24,13,15,246,81,94,24,104,58]},"announce":[],"urlList":[]}}